<svg width="115" height="115" viewBox="0 0 115 115" fill="none" xmlns="http://www.w3.org/2000/svg">
<g id="ROCKPAPERSCISSORSLIZARDSPOCK" filter="url(#filter0_d_0_1039)">
<path fill-rule="evenodd" clip-rule="evenodd" d="M28.34 19.292C27.3507 19.8147 26.212 20.076 24.924 20.076C23.636 20.076 22.502 19.8147 21.522 19.292C20.542 18.7693 19.7813 18.032 19.24 17.08C18.6987 16.128 18.428 15.0173 18.428 13.748V6.3C18.428 5.04933 18.6987 3.948 19.24 2.996C19.7813 2.044 20.542 1.30667 21.522 0.784C22.502 0.261333 23.636 0 24.924 0C26.212 0 27.3507 0.261333 28.34 0.784C29.3293 1.30667 30.0947 2.044 30.636 2.996C31.1773 3.948 31.448 5.04933 31.448 6.3V13.748C31.448 15.0173 31.1773 16.128 30.636 17.08C30.0947 18.032 29.3293 18.7693 28.34 19.292ZM7.172 19.824C7.26533 19.824 7.34467 19.7913 7.41 19.726C7.47533 19.6607 7.508 19.5813 7.508 19.488V11.844C7.508 11.7507 7.55467 11.704 7.648 11.704H9.412C9.468 11.704 9.51467 11.7413 9.552 11.816L12.38 19.544C12.436 19.7307 12.5667 19.824 12.772 19.824H16.188C16.3933 19.824 16.496 19.74 16.496 19.572C16.496 19.516 16.4867 19.4693 16.468 19.432L13.276 11.396C13.2387 11.3027 13.2667 11.2373 13.36 11.2C14.312 10.7707 15.0493 10.1173 15.572 9.24C16.0947 8.36267 16.356 7.32667 16.356 6.132C16.356 4.97467 16.1227 3.948 15.656 3.052C15.1893 2.156 14.5267 1.46067 13.668 0.966C12.8093 0.471333 11.8293 0.224 10.728 0.224H3.896C3.80267 0.224 3.72333 0.256667 3.658 0.322C3.59267 0.387333 3.56 0.466667 3.56 0.56V19.488C3.56 19.5813 3.59267 19.6607 3.658 19.726C3.72333 19.7913 3.80267 19.824 3.896 19.824H7.172ZM10.084 8.68H7.648C7.55467 8.68 7.508 8.63333 7.508 8.54V3.752C7.508 3.65867 7.55467 3.612 7.648 3.612H10.084C10.7747 3.612 11.3347 3.84067 11.764 4.298C12.1933 4.75533 12.408 5.376 12.408 6.16C12.408 6.92533 12.1933 7.53667 11.764 7.994C11.3347 8.45133 10.7747 8.68 10.084 8.68ZM24.924 16.688C24.1587 16.688 23.5427 16.4313 23.076 15.918C22.6093 15.4047 22.376 14.7373 22.376 13.916V6.188C22.376 5.348 22.6093 4.67133 23.076 4.158C23.5427 3.64467 24.1587 3.388 24.924 3.388C25.708 3.388 26.3333 3.64467 26.8 4.158C27.2667 4.67133 27.5 5.348 27.5 6.188V13.916C27.5 14.7373 27.2667 15.4047 26.8 15.918C26.3333 16.4313 25.708 16.688 24.924 16.688ZM45.77 17.192C45.238 18.1067 44.4867 18.8113 43.516 19.306C42.5453 19.8007 41.4253 20.048 40.156 20.048C38.8867 20.048 37.7667 19.796 36.796 19.292C35.8253 18.788 35.074 18.0693 34.542 17.136C34.01 16.2027 33.744 15.12 33.744 13.888V6.104C33.744 4.89067 34.01 3.822 34.542 2.898C35.074 1.974 35.8253 1.26 36.796 0.756C37.7667 0.252 38.8867 0 40.156 0C41.4253 0 42.5453 0.247333 43.516 0.742C44.4867 1.23667 45.238 1.932 45.77 2.828C46.302 3.724 46.568 4.76933 46.568 5.964V6.104C46.568 6.19733 46.5353 6.28133 46.47 6.356C46.4047 6.43067 46.3253 6.468 46.232 6.468L42.956 6.608C42.732 6.608 42.62 6.50533 42.62 6.3V5.936C42.62 5.17067 42.396 4.55467 41.948 4.088C41.5 3.62133 40.9027 3.388 40.156 3.388C39.4093 3.388 38.812 3.62133 38.364 4.088C37.916 4.55467 37.692 5.17067 37.692 5.936V14.14C37.692 14.9053 37.916 15.5167 38.364 15.974C38.812 16.4313 39.4093 16.66 40.156 16.66C40.9027 16.66 41.5 16.4313 41.948 15.974C42.396 15.5167 42.62 14.9053 42.62 14.14V13.776C42.62 13.5707 42.732 13.468 42.956 13.468L46.232 13.608C46.3253 13.608 46.4047 13.6407 46.47 13.706C46.5353 13.7713 46.568 13.8507 46.568 13.944V14.028C46.568 15.2227 46.302 16.2773 45.77 17.192ZM52.7 19.824C52.7933 19.824 52.8727 19.7913 52.938 19.726C53.0033 19.6607 53.036 19.5813 53.036 19.488V13.888C53.036 13.8507 53.0547 13.7947 53.092 13.72L54.352 11.9C54.3893 11.844 54.4267 11.816 54.464 11.816C54.5013 11.816 54.5293 11.844 54.548 11.9L58.524 19.572C58.6173 19.74 58.748 19.824 58.916 19.824H62.5C62.7053 19.824 62.808 19.7493 62.808 19.6C62.808 19.5627 62.7893 19.5067 62.752 19.432L57.264 8.848C57.2453 8.77333 57.2453 8.708 57.264 8.652L62.444 0.616C62.5187 0.504 62.5327 0.410667 62.486 0.336C62.4393 0.261333 62.3507 0.224 62.22 0.224H58.608C58.44 0.224 58.3093 0.298667 58.216 0.448L53.204 8.064C53.1853 8.12 53.1527 8.13867 53.106 8.12C53.0593 8.10133 53.036 8.064 53.036 8.008V0.56C53.036 0.466667 53.0033 0.387333 52.938 0.322C52.8727 0.256667 52.7933 0.224 52.7 0.224H49.424C49.3307 0.224 49.2513 0.256667 49.186 0.322C49.1207 0.387333 49.088 0.466667 49.088 0.56V19.488C49.088 19.5813 49.1207 19.6607 49.186 19.726C49.2513 19.7913 49.3307 19.824 49.424 19.824H52.7ZM7.326 41.726C7.26067 41.7913 7.18133 41.824 7.088 41.824H3.812C3.71867 41.824 3.63933 41.7913 3.574 41.726C3.50867 41.6607 3.476 41.5813 3.476 41.488V22.532C3.476 22.4387 3.50867 22.3593 3.574 22.294C3.63933 22.2287 3.71867 22.196 3.812 22.196H10.588C11.708 22.196 12.702 22.448 13.57 22.952C14.438 23.456 15.11 24.1653 15.586 25.08C16.062 25.9947 16.3 27.04 16.3 28.216C16.3 29.3733 16.062 30.3953 15.586 31.282C15.11 32.1687 14.438 32.8547 13.57 33.34C12.702 33.8253 11.708 34.068 10.588 34.068H7.564C7.47067 34.068 7.424 34.1147 7.424 34.208V41.488C7.424 41.5813 7.39133 41.6607 7.326 41.726ZM9.944 30.932H7.564C7.47067 30.932 7.424 30.8853 7.424 30.792V25.752C7.424 25.6587 7.47067 25.612 7.564 25.612H9.944C10.672 25.612 11.2553 25.8547 11.694 26.34C12.1327 26.8253 12.352 27.4787 12.352 28.3C12.352 29.1027 12.1327 29.742 11.694 30.218C11.2553 30.694 10.672 30.932 9.944 30.932ZM21.592 41.544C21.536 41.7307 21.4147 41.824 21.228 41.824H17.84C17.5973 41.824 17.504 41.7027 17.56 41.46L22.6 22.504C22.656 22.3173 22.7867 22.224 22.992 22.224H27.052C27.2573 22.224 27.388 22.3173 27.444 22.504L32.484 41.46L32.512 41.572C32.512 41.74 32.4093 41.824 32.204 41.824H28.788C28.5827 41.824 28.452 41.7307 28.396 41.544L27.752 38.8C27.7333 38.7253 27.6867 38.688 27.612 38.688H22.376C22.3013 38.688 22.2547 38.7253 22.236 38.8L21.592 41.544ZM26.828 35.636H23.132C23.0947 35.636 23.0573 35.622 23.02 35.594C22.9827 35.566 22.9733 35.524 22.992 35.468L24.868 27.348C24.8867 27.2733 24.9147 27.236 24.952 27.236C24.9893 27.236 25.0173 27.2733 25.036 27.348L26.968 35.468C26.9867 35.524 26.9773 35.566 26.94 35.594C26.9027 35.622 26.8653 35.636 26.828 35.636ZM38.35 41.726C38.2847 41.7913 38.2053 41.824 38.112 41.824H34.836C34.7427 41.824 34.6633 41.7913 34.598 41.726C34.5327 41.6607 34.5 41.5813 34.5 41.488V22.532C34.5 22.4387 34.5327 22.3593 34.598 22.294C34.6633 22.2287 34.7427 22.196 34.836 22.196H41.612C42.732 22.196 43.726 22.448 44.594 22.952C45.462 23.456 46.134 24.1653 46.61 25.08C47.086 25.9947 47.324 27.04 47.324 28.216C47.324 29.3733 47.086 30.3953 46.61 31.282C46.134 32.1687 45.462 32.8547 44.594 33.34C43.726 33.8253 42.732 34.068 41.612 34.068H38.588C38.4947 34.068 38.448 34.1147 38.448 34.208V41.488C38.448 41.5813 38.4153 41.6607 38.35 41.726ZM40.968 30.932H38.588C38.4947 30.932 38.448 30.8853 38.448 30.792V25.752C38.448 25.6587 38.4947 25.612 38.588 25.612H40.968C41.696 25.612 42.2793 25.8547 42.718 26.34C43.1567 26.8253 43.376 27.4787 43.376 28.3C43.376 29.1027 43.1567 29.742 42.718 30.218C42.2793 30.694 41.696 30.932 40.968 30.932ZM61.282 41.726C61.2167 41.7913 61.1373 41.824 61.044 41.824H49.788C49.6947 41.824 49.6153 41.7913 49.55 41.726C49.4847 41.6607 49.452 41.5813 49.452 41.488V22.56C49.452 22.4667 49.4847 22.3873 49.55 22.322C49.6153 22.2567 49.6947 22.224 49.788 22.224H61.044C61.1373 22.224 61.2167 22.2567 61.282 22.322C61.3473 22.3873 61.38 22.4667 61.38 22.56V25.276C61.38 25.3693 61.3473 25.4487 61.282 25.514C61.2167 25.5793 61.1373 25.612 61.044 25.612H53.54C53.4467 25.612 53.4 25.6587 53.4 25.752V30.12C53.4 30.2133 53.4467 30.26 53.54 30.26H58.216C58.3093 30.26 58.3887 30.2927 58.454 30.358C58.5193 30.4233 58.552 30.5027 58.552 30.596V33.312C58.552 33.4053 58.5193 33.4847 58.454 33.55C58.3887 33.6153 58.3093 33.648 58.216 33.648H53.54C53.4467 33.648 53.4 33.6947 53.4 33.788V38.296C53.4 38.3893 53.4467 38.436 53.54 38.436H61.044C61.1373 38.436 61.2167 38.4687 61.282 38.534C61.3473 38.5993 61.38 38.6787 61.38 38.772V41.488C61.38 41.5813 61.3473 41.6607 61.282 41.726ZM67.372 41.824C67.4653 41.824 67.5447 41.7913 67.61 41.726C67.6753 41.6607 67.708 41.5813 67.708 41.488V33.844C67.708 33.7507 67.7547 33.704 67.848 33.704H69.612C69.668 33.704 69.7147 33.7413 69.752 33.816L72.58 41.544C72.636 41.7307 72.7667 41.824 72.972 41.824H76.388C76.5933 41.824 76.696 41.74 76.696 41.572C76.696 41.516 76.6867 41.4693 76.668 41.432L73.476 33.396C73.4387 33.3027 73.4667 33.2373 73.56 33.2C74.512 32.7707 75.2493 32.1173 75.772 31.24C76.2947 30.3627 76.556 29.3267 76.556 28.132C76.556 26.9747 76.3227 25.948 75.856 25.052C75.3893 24.156 74.7267 23.4607 73.868 22.966C73.0093 22.4713 72.0293 22.224 70.928 22.224H64.096C64.0027 22.224 63.9233 22.2567 63.858 22.322C63.7927 22.3873 63.76 22.4667 63.76 22.56V41.488C63.76 41.5813 63.7927 41.6607 63.858 41.726C63.9233 41.7913 64.0027 41.824 64.096 41.824H67.372ZM67.848 30.68H70.284C70.9747 30.68 71.5347 30.4513 71.964 29.994C72.3933 29.5367 72.608 28.9253 72.608 28.16C72.608 27.376 72.3933 26.7553 71.964 26.298C71.5347 25.8407 70.9747 25.612 70.284 25.612H67.848C67.7547 25.612 67.708 25.6587 67.708 25.752V30.54C67.708 30.6333 67.7547 30.68 67.848 30.68ZM9.44 64.048C11.344 64.048 12.87 63.5487 14.018 62.55C15.166 61.5513 15.74 60.2027 15.74 58.504C15.74 57.552 15.5347 56.74 15.124 56.068C14.7133 55.396 14.2047 54.8407 13.598 54.402C12.9913 53.9633 12.1467 53.4453 11.064 52.848L10.476 52.512C9.524 52.0453 8.81467 51.6673 8.348 51.378C7.88133 51.0887 7.536 50.7853 7.312 50.468C7.088 50.1507 6.976 49.7773 6.976 49.348C6.976 48.732 7.16733 48.2513 7.55 47.906C7.93267 47.5607 8.46 47.388 9.132 47.388C9.93467 47.388 10.5693 47.612 11.036 48.06C11.5027 48.508 11.736 49.068 11.736 49.74V50.244C11.736 50.3373 11.7687 50.4167 11.834 50.482C11.8993 50.5473 11.9787 50.58 12.072 50.58H15.292C15.3853 50.58 15.4647 50.5473 15.53 50.482C15.5953 50.4167 15.628 50.3373 15.628 50.244V49.684C15.628 48.564 15.3573 47.5747 14.816 46.716C14.2747 45.8573 13.5187 45.19 12.548 44.714C11.5773 44.238 10.4667 44 9.216 44C8.02133 44 6.95733 44.2193 6.024 44.658C5.09067 45.0967 4.36733 45.722 3.854 46.534C3.34067 47.346 3.084 48.2933 3.084 49.376C3.084 50.4587 3.336 51.3827 3.84 52.148C4.344 52.9133 4.95067 53.5387 5.66 54.024C6.36933 54.5093 7.284 55.032 8.404 55.592C9.31867 56.0587 9.99533 56.4273 10.434 56.698C10.8727 56.9687 11.2133 57.258 11.456 57.566C11.6987 57.874 11.82 58.2427 11.82 58.672C11.82 59.2507 11.6287 59.7267 11.246 60.1C10.8633 60.4733 10.308 60.66 9.58 60.66C8.75867 60.66 8.10533 60.4407 7.62 60.002C7.13467 59.5633 6.892 59.0173 6.892 58.364V57.832C6.892 57.7387 6.85933 57.6593 6.794 57.594C6.72867 57.5287 6.64933 57.496 6.556 57.496H3.336C3.24267 57.496 3.16333 57.5287 3.098 57.594C3.03267 57.6593 3 57.7387 3 57.832V58.56C3 59.6427 3.266 60.5993 3.798 61.43C4.33 62.2607 5.08133 62.9047 6.052 63.362C7.02267 63.8193 8.152 64.048 9.44 64.048ZM29.81 61.192C29.278 62.1067 28.5267 62.8113 27.556 63.306C26.5853 63.8007 25.4653 64.048 24.196 64.048C22.9267 64.048 21.8067 63.796 20.836 63.292C19.8653 62.788 19.114 62.0693 18.582 61.136C18.05 60.2027 17.784 59.12 17.784 57.888V50.104C17.784 48.8907 18.05 47.822 18.582 46.898C19.114 45.974 19.8653 45.26 20.836 44.756C21.8067 44.252 22.9267 44 24.196 44C25.4653 44 26.5853 44.2473 27.556 44.742C28.5267 45.2367 29.278 45.932 29.81 46.828C30.342 47.724 30.608 48.7693 30.608 49.964V50.104C30.608 50.1973 30.5753 50.2813 30.51 50.356C30.4447 50.4307 30.3653 50.468 30.272 50.468L26.996 50.608C26.772 50.608 26.66 50.5053 26.66 50.3V49.936C26.66 49.1707 26.436 48.5547 25.988 48.088C25.54 47.6213 24.9427 47.388 24.196 47.388C23.4493 47.388 22.852 47.6213 22.404 48.088C21.956 48.5547 21.732 49.1707 21.732 49.936V58.14C21.732 58.9053 21.956 59.5167 22.404 59.974C22.852 60.4313 23.4493 60.66 24.196 60.66C24.9427 60.66 25.54 60.4313 25.988 59.974C26.436 59.5167 26.66 58.9053 26.66 58.14V57.776C26.66 57.5707 26.772 57.468 26.996 57.468L30.272 57.608C30.3653 57.608 30.4447 57.6407 30.51 57.706C30.5753 57.7713 30.608 57.8507 30.608 57.944V58.028C30.608 59.2227 30.342 60.2773 29.81 61.192ZM36.74 63.824C36.8333 63.824 36.9127 63.7913 36.978 63.726C37.0433 63.6607 37.076 63.5813 37.076 63.488V44.56C37.076 44.4667 37.0433 44.3873 36.978 44.322C36.9127 44.2567 36.8333 44.224 36.74 44.224H33.464C33.3707 44.224 33.2913 44.2567 33.226 44.322C33.1607 44.3873 33.128 44.4667 33.128 44.56V63.488C33.128 63.5813 33.1607 63.6607 33.226 63.726C33.2913 63.7913 33.3707 63.824 33.464 63.824H36.74ZM50.474 62.55C49.326 63.5487 47.8 64.048 45.896 64.048C44.608 64.048 43.4787 63.8193 42.508 63.362C41.5373 62.9047 40.786 62.2607 40.254 61.43C39.722 60.5993 39.456 59.6427 39.456 58.56V57.832C39.456 57.7387 39.4887 57.6593 39.554 57.594C39.6193 57.5287 39.6987 57.496 39.792 57.496H43.012C43.1053 57.496 43.1847 57.5287 43.25 57.594C43.3153 57.6593 43.348 57.7387 43.348 57.832V58.364C43.348 59.0173 43.5907 59.5633 44.076 60.002C44.5613 60.4407 45.2147 60.66 46.036 60.66C46.764 60.66 47.3193 60.4733 47.702 60.1C48.0847 59.7267 48.276 59.2507 48.276 58.672C48.276 58.2427 48.1547 57.874 47.912 57.566C47.6693 57.258 47.3287 56.9687 46.89 56.698C46.4513 56.4273 45.7747 56.0587 44.86 55.592C43.74 55.032 42.8253 54.5093 42.116 54.024C41.4067 53.5387 40.8 52.9133 40.296 52.148C39.792 51.3827 39.54 50.4587 39.54 49.376C39.54 48.2933 39.7967 47.346 40.31 46.534C40.8233 45.722 41.5467 45.0967 42.48 44.658C43.4133 44.2193 44.4773 44 45.672 44C46.9227 44 48.0333 44.238 49.004 44.714C49.9747 45.19 50.7307 45.8573 51.272 46.716C51.8133 47.5747 52.084 48.564 52.084 49.684V50.244C52.084 50.3373 52.0513 50.4167 51.986 50.482C51.9207 50.5473 51.8413 50.58 51.748 50.58H48.528C48.4347 50.58 48.3553 50.5473 48.29 50.482C48.2247 50.4167 48.192 50.3373 48.192 50.244V49.74C48.192 49.068 47.9587 48.508 47.492 48.06C47.0253 47.612 46.3907 47.388 45.588 47.388C44.916 47.388 44.3887 47.5607 44.006 47.906C43.6233 48.2513 43.432 48.732 43.432 49.348C43.432 49.7773 43.544 50.1507 43.768 50.468C43.992 50.7853 44.3373 51.0887 44.804 51.378C45.2707 51.6673 45.98 52.0453 46.932 52.512L47.52 52.848C48.6027 53.4453 49.4473 53.9633 50.054 54.402C50.6607 54.8407 51.1693 55.396 51.58 56.068C51.9907 56.74 52.196 57.552 52.196 58.504C52.196 60.2027 51.622 61.5513 50.474 62.55ZM60.456 64.048C62.36 64.048 63.886 63.5487 65.034 62.55C66.182 61.5513 66.756 60.2027 66.756 58.504C66.756 57.552 66.5507 56.74 66.14 56.068C65.7293 55.396 65.2207 54.8407 64.614 54.402C64.0073 53.9633 63.1627 53.4453 62.08 52.848L61.492 52.512C60.54 52.0453 59.8307 51.6673 59.364 51.378C58.8973 51.0887 58.552 50.7853 58.328 50.468C58.104 50.1507 57.992 49.7773 57.992 49.348C57.992 48.732 58.1833 48.2513 58.566 47.906C58.9487 47.5607 59.476 47.388 60.148 47.388C60.9507 47.388 61.5853 47.612 62.052 48.06C62.5187 48.508 62.752 49.068 62.752 49.74V50.244C62.752 50.3373 62.7847 50.4167 62.85 50.482C62.9153 50.5473 62.9947 50.58 63.088 50.58H66.308C66.4013 50.58 66.4807 50.5473 66.546 50.482C66.6113 50.4167 66.644 50.3373 66.644 50.244V49.684C66.644 48.564 66.3733 47.5747 65.832 46.716C65.2907 45.8573 64.5347 45.19 63.564 44.714C62.5933 44.238 61.4827 44 60.232 44C59.0373 44 57.9733 44.2193 57.04 44.658C56.1067 45.0967 55.3833 45.722 54.87 46.534C54.3567 47.346 54.1 48.2933 54.1 49.376C54.1 50.4587 54.352 51.3827 54.856 52.148C55.36 52.9133 55.9667 53.5387 56.676 54.024C57.3853 54.5093 58.3 55.032 59.42 55.592C60.3347 56.0587 61.0113 56.4273 61.45 56.698C61.8887 56.9687 62.2293 57.258 62.472 57.566C62.7147 57.874 62.836 58.2427 62.836 58.672C62.836 59.2507 62.6447 59.7267 62.262 60.1C61.8793 60.4733 61.324 60.66 60.596 60.66C59.7747 60.66 59.1213 60.4407 58.636 60.002C58.1507 59.5633 57.908 59.0173 57.908 58.364V57.832C57.908 57.7387 57.8753 57.6593 57.81 57.594C57.7447 57.5287 57.6653 57.496 57.572 57.496H54.352C54.2587 57.496 54.1793 57.5287 54.114 57.594C54.0487 57.6593 54.016 57.7387 54.016 57.832V58.56C54.016 59.6427 54.282 60.5993 54.814 61.43C55.346 62.2607 56.0973 62.9047 57.068 63.362C58.0387 63.8193 59.168 64.048 60.456 64.048ZM78.712 63.292C77.7227 63.8147 76.584 64.076 75.296 64.076C74.008 64.076 72.874 63.8147 71.894 63.292C70.914 62.7693 70.1533 62.032 69.612 61.08C69.0707 60.128 68.8 59.0173 68.8 57.748V50.3C68.8 49.0493 69.0707 47.948 69.612 46.996C70.1533 46.044 70.914 45.3067 71.894 44.784C72.874 44.2613 74.008 44 75.296 44C76.584 44 77.7227 44.2613 78.712 44.784C79.7013 45.3067 80.4667 46.044 81.008 46.996C81.5493 47.948 81.82 49.0493 81.82 50.3V57.748C81.82 59.0173 81.5493 60.128 81.008 61.08C80.4667 62.032 79.7013 62.7693 78.712 63.292ZM75.296 60.688C74.5307 60.688 73.9147 60.4313 73.448 59.918C72.9813 59.4047 72.748 58.7373 72.748 57.916V50.188C72.748 49.348 72.9813 48.6713 73.448 48.158C73.9147 47.6447 74.5307 47.388 75.296 47.388C76.08 47.388 76.7053 47.6447 77.172 48.158C77.6387 48.6713 77.872 49.348 77.872 50.188V57.916C77.872 58.7373 77.6387 59.4047 77.172 59.918C76.7053 60.4313 76.08 60.688 75.296 60.688ZM88.302 63.726C88.2367 63.7913 88.1573 63.824 88.064 63.824H84.788C84.6947 63.824 84.6153 63.7913 84.55 63.726C84.4847 63.6607 84.452 63.5813 84.452 63.488V44.56C84.452 44.4667 84.4847 44.3873 84.55 44.322C84.6153 44.2567 84.6947 44.224 84.788 44.224H91.62C92.7213 44.224 93.7013 44.4713 94.56 44.966C95.4187 45.4607 96.0813 46.156 96.548 47.052C97.0147 47.948 97.248 48.9747 97.248 50.132C97.248 51.3267 96.9867 52.3627 96.464 53.24C95.9413 54.1173 95.204 54.7707 94.252 55.2C94.1587 55.2373 94.1307 55.3027 94.168 55.396L97.36 63.432C97.3787 63.4693 97.388 63.516 97.388 63.572C97.388 63.74 97.2853 63.824 97.08 63.824H93.664C93.4587 63.824 93.328 63.7307 93.272 63.544L90.444 55.816C90.4067 55.7413 90.36 55.704 90.304 55.704H88.54C88.4467 55.704 88.4 55.7507 88.4 55.844V63.488C88.4 63.5813 88.3673 63.6607 88.302 63.726ZM90.976 52.68H88.54C88.4467 52.68 88.4 52.6333 88.4 52.54V47.752C88.4 47.6587 88.4467 47.612 88.54 47.612H90.976C91.6667 47.612 92.2267 47.8407 92.656 48.298C93.0853 48.7553 93.3 49.376 93.3 50.16C93.3 50.9253 93.0853 51.5367 92.656 51.994C92.2267 52.4513 91.6667 52.68 90.976 52.68ZM110.114 62.55C108.966 63.5487 107.44 64.048 105.536 64.048C104.248 64.048 103.119 63.8193 102.148 63.362C101.177 62.9047 100.426 62.2607 99.894 61.43C99.362 60.5993 99.096 59.6427 99.096 58.56V57.832C99.096 57.7387 99.1287 57.6593 99.194 57.594C99.2593 57.5287 99.3387 57.496 99.432 57.496H102.652C102.745 57.496 102.825 57.5287 102.89 57.594C102.955 57.6593 102.988 57.7387 102.988 57.832V58.364C102.988 59.0173 103.231 59.5633 103.716 60.002C104.201 60.4407 104.855 60.66 105.676 60.66C106.404 60.66 106.959 60.4733 107.342 60.1C107.725 59.7267 107.916 59.2507 107.916 58.672C107.916 58.2427 107.795 57.874 107.552 57.566C107.309 57.258 106.969 56.9687 106.53 56.698C106.091 56.4273 105.415 56.0587 104.5 55.592C103.38 55.032 102.465 54.5093 101.756 54.024C101.047 53.5387 100.44 52.9133 99.936 52.148C99.432 51.3827 99.18 50.4587 99.18 49.376C99.18 48.2933 99.4367 47.346 99.95 46.534C100.463 45.722 101.187 45.0967 102.12 44.658C103.053 44.2193 104.117 44 105.312 44C106.563 44 107.673 44.238 108.644 44.714C109.615 45.19 110.371 45.8573 110.912 46.716C111.453 47.5747 111.724 48.564 111.724 49.684V50.244C111.724 50.3373 111.691 50.4167 111.626 50.482C111.561 50.5473 111.481 50.58 111.388 50.58H108.168C108.075 50.58 107.995 50.5473 107.93 50.482C107.865 50.4167 107.832 50.3373 107.832 50.244V49.74C107.832 49.068 107.599 48.508 107.132 48.06C106.665 47.612 106.031 47.388 105.228 47.388C104.556 47.388 104.029 47.5607 103.646 47.906C103.263 48.2513 103.072 48.732 103.072 49.348C103.072 49.7773 103.184 50.1507 103.408 50.468C103.632 50.7853 103.977 51.0887 104.444 51.378C104.911 51.6673 105.62 52.0453 106.572 52.512L107.16 52.848C108.243 53.4453 109.087 53.9633 109.694 54.402C110.301 54.8407 110.809 55.396 111.22 56.068C111.631 56.74 111.836 57.552 111.836 58.504C111.836 60.2027 111.262 61.5513 110.114 62.55ZM15.152 85.824C15.2453 85.824 15.3247 85.7913 15.39 85.726C15.4553 85.6607 15.488 85.5813 15.488 85.488V82.772C15.488 82.6787 15.4553 82.5993 15.39 82.534C15.3247 82.4687 15.2453 82.436 15.152 82.436H7.648C7.55467 82.436 7.508 82.3893 7.508 82.296V66.56C7.508 66.4667 7.47533 66.3873 7.41 66.322C7.34467 66.2567 7.26533 66.224 7.172 66.224H3.896C3.80267 66.224 3.72333 66.2567 3.658 66.322C3.59267 66.3873 3.56 66.4667 3.56 66.56V85.488C3.56 85.5813 3.59267 85.6607 3.658 85.726C3.72333 85.7913 3.80267 85.824 3.896 85.824H15.152ZM21.382 85.726C21.3167 85.7913 21.2373 85.824 21.144 85.824H17.868C17.7747 85.824 17.6953 85.7913 17.63 85.726C17.5647 85.6607 17.532 85.5813 17.532 85.488V66.56C17.532 66.4667 17.5647 66.3873 17.63 66.322C17.6953 66.2567 17.7747 66.224 17.868 66.224H21.144C21.2373 66.224 21.3167 66.2567 21.382 66.322C21.4473 66.3873 21.48 66.4667 21.48 66.56V85.488C21.48 85.5813 21.4473 85.6607 21.382 85.726ZM35.312 85.824C35.4053 85.824 35.4847 85.7913 35.55 85.726C35.6153 85.6607 35.648 85.5813 35.648 85.488V82.772C35.648 82.6787 35.6153 82.5993 35.55 82.534C35.4847 82.4687 35.4053 82.436 35.312 82.436H28.116C28.004 82.436 27.976 82.38 28.032 82.268L35.536 69.92C35.6107 69.7893 35.648 69.6493 35.648 69.5V66.56C35.648 66.4667 35.6153 66.3873 35.55 66.322C35.4847 66.2567 35.4053 66.224 35.312 66.224H24C23.9067 66.224 23.8273 66.2567 23.762 66.322C23.6967 66.3873 23.664 66.4667 23.664 66.56V69.276C23.664 69.3693 23.6967 69.4487 23.762 69.514C23.8273 69.5793 23.9067 69.612 24 69.612H31.196C31.308 69.612 31.336 69.668 31.28 69.78L23.776 82.128C23.7013 82.2587 23.664 82.3987 23.664 82.548V85.488C23.664 85.5813 23.6967 85.6607 23.762 85.726C23.8273 85.7913 23.9067 85.824 24 85.824H35.312ZM41.164 85.544C41.108 85.7307 40.9867 85.824 40.8 85.824H37.412C37.1693 85.824 37.076 85.7027 37.132 85.46L42.172 66.504C42.228 66.3173 42.3587 66.224 42.564 66.224H46.624C46.8293 66.224 46.96 66.3173 47.016 66.504L52.056 85.46L52.084 85.572C52.084 85.74 51.9813 85.824 51.776 85.824H48.36C48.1547 85.824 48.024 85.7307 47.968 85.544L47.324 82.8C47.3053 82.7253 47.2587 82.688 47.184 82.688H41.948C41.8733 82.688 41.8267 82.7253 41.808 82.8L41.164 85.544ZM46.4 79.636H42.704C42.6667 79.636 42.6293 79.622 42.592 79.594C42.5547 79.566 42.5453 79.524 42.564 79.468L44.44 71.348C44.4587 71.2733 44.4867 71.236 44.524 71.236C44.5613 71.236 44.5893 71.2733 44.608 71.348L46.54 79.468C46.5587 79.524 46.5493 79.566 46.512 79.594C46.4747 79.622 46.4373 79.636 46.4 79.636ZM58.006 85.726C57.9407 85.7913 57.8613 85.824 57.768 85.824H54.492C54.3987 85.824 54.3193 85.7913 54.254 85.726C54.1887 85.6607 54.156 85.5813 54.156 85.488V66.56C54.156 66.4667 54.1887 66.3873 54.254 66.322C54.3193 66.2567 54.3987 66.224 54.492 66.224H61.324C62.4253 66.224 63.4053 66.4713 64.264 66.966C65.1227 67.4607 65.7853 68.156 66.252 69.052C66.7187 69.948 66.952 70.9747 66.952 72.132C66.952 73.3267 66.6907 74.3627 66.168 75.24C65.6453 76.1173 64.908 76.7707 63.956 77.2C63.8627 77.2373 63.8347 77.3027 63.872 77.396L67.064 85.432C67.0827 85.4693 67.092 85.516 67.092 85.572C67.092 85.74 66.9893 85.824 66.784 85.824H63.368C63.1627 85.824 63.032 85.7307 62.976 85.544L60.148 77.816C60.1107 77.7413 60.064 77.704 60.008 77.704H58.244C58.1507 77.704 58.104 77.7507 58.104 77.844V85.488C58.104 85.5813 58.0713 85.6607 58.006 85.726ZM60.68 74.68H58.244C58.1507 74.68 58.104 74.6333 58.104 74.54V69.752C58.104 69.6587 58.1507 69.612 58.244 69.612H60.68C61.3707 69.612 61.9307 69.8407 62.36 70.298C62.7893 70.7553 63.004 71.376 63.004 72.16C63.004 72.9253 62.7893 73.5367 62.36 73.994C61.9307 74.4513 61.3707 74.68 60.68 74.68ZM79.034 85.124C78.0727 85.5907 76.9667 85.824 75.716 85.824H69.696C69.6027 85.824 69.5233 85.7913 69.458 85.726C69.3927 85.6607 69.36 85.5813 69.36 85.488V66.56C69.36 66.4667 69.3927 66.3873 69.458 66.322C69.5233 66.2567 69.6027 66.224 69.696 66.224H75.716C76.9667 66.224 78.0727 66.4573 79.034 66.924C79.9953 67.3907 80.7373 68.0533 81.26 68.912C81.7827 69.7707 82.044 70.7693 82.044 71.908V80.14C82.044 81.2787 81.7827 82.2773 81.26 83.136C80.7373 83.9947 79.9953 84.6573 79.034 85.124ZM73.448 82.436C73.3547 82.436 73.308 82.3893 73.308 82.296V69.752C73.308 69.6587 73.3547 69.612 73.448 69.612H75.744C76.4533 69.612 77.0227 69.8593 77.452 70.354C77.8813 70.8487 78.096 71.516 78.096 72.356V79.692C78.0773 80.5133 77.8533 81.1713 77.424 81.666C76.9947 82.1607 76.4347 82.408 75.744 82.408L73.448 82.436ZM14.018 106.55C12.87 107.549 11.344 108.048 9.44 108.048C8.152 108.048 7.02267 107.819 6.052 107.362C5.08133 106.905 4.33 106.261 3.798 105.43C3.266 104.599 3 103.643 3 102.56V101.832C3 101.739 3.03267 101.659 3.098 101.594C3.16333 101.529 3.24267 101.496 3.336 101.496H6.556C6.64933 101.496 6.72867 101.529 6.794 101.594C6.85933 101.659 6.892 101.739 6.892 101.832V102.364C6.892 103.017 7.13467 103.563 7.62 104.002C8.10533 104.441 8.75867 104.66 9.58 104.66C10.308 104.66 10.8633 104.473 11.246 104.1C11.6287 103.727 11.82 103.251 11.82 102.672C11.82 102.243 11.6987 101.874 11.456 101.566C11.2133 101.258 10.8727 100.969 10.434 100.698C9.99533 100.427 9.31867 100.059 8.404 99.592C7.284 99.032 6.36933 98.5093 5.66 98.024C4.95067 97.5387 4.344 96.9133 3.84 96.148C3.336 95.3827 3.084 94.4587 3.084 93.376C3.084 92.2933 3.34067 91.346 3.854 90.534C4.36733 89.722 5.09067 89.0967 6.024 88.658C6.95733 88.2193 8.02133 88 9.216 88C10.4667 88 11.5773 88.238 12.548 88.714C13.5187 89.19 14.2747 89.8573 14.816 90.716C15.3573 91.5747 15.628 92.564 15.628 93.684V94.244C15.628 94.3373 15.5953 94.4167 15.53 94.482C15.4647 94.5473 15.3853 94.58 15.292 94.58H12.072C11.9787 94.58 11.8993 94.5473 11.834 94.482C11.7687 94.4167 11.736 94.3373 11.736 94.244V93.74C11.736 93.068 11.5027 92.508 11.036 92.06C10.5693 91.612 9.93467 91.388 9.132 91.388C8.46 91.388 7.93267 91.5607 7.55 91.906C7.16733 92.2513 6.976 92.732 6.976 93.348C6.976 93.7773 7.088 94.1507 7.312 94.468C7.536 94.7853 7.88133 95.0887 8.348 95.378C8.81467 95.6673 9.524 96.0453 10.476 96.512L11.064 96.848C12.1467 97.4453 12.9913 97.9633 13.598 98.402C14.2047 98.8407 14.7133 99.396 15.124 100.068C15.5347 100.74 15.74 101.552 15.74 102.504C15.74 104.203 15.166 105.551 14.018 106.55ZM21.648 107.824C21.7413 107.824 21.8207 107.791 21.886 107.726C21.9513 107.661 21.984 107.581 21.984 107.488V100.208C21.984 100.115 22.0307 100.068 22.124 100.068H25.148C26.268 100.068 27.262 99.8253 28.13 99.34C28.998 98.8547 29.67 98.1687 30.146 97.282C30.622 96.3953 30.86 95.3733 30.86 94.216C30.86 93.04 30.622 91.9947 30.146 91.08C29.67 90.1653 28.998 89.456 28.13 88.952C27.262 88.448 26.268 88.196 25.148 88.196H18.372C18.2787 88.196 18.1993 88.2287 18.134 88.294C18.0687 88.3593 18.036 88.4387 18.036 88.532V107.488C18.036 107.581 18.0687 107.661 18.134 107.726C18.1993 107.791 18.2787 107.824 18.372 107.824H21.648ZM22.124 96.932H24.504C25.232 96.932 25.8153 96.694 26.254 96.218C26.6927 95.742 26.912 95.1027 26.912 94.3C26.912 93.4787 26.6927 92.8253 26.254 92.34C25.8153 91.8547 25.232 91.612 24.504 91.612H22.124C22.0307 91.612 21.984 91.6587 21.984 91.752V96.792C21.984 96.8853 22.0307 96.932 22.124 96.932ZM39.148 108.076C40.436 108.076 41.5747 107.815 42.564 107.292C43.5533 106.769 44.3187 106.032 44.86 105.08C45.4013 104.128 45.672 103.017 45.672 101.748V94.3C45.672 93.0493 45.4013 91.948 44.86 90.996C44.3187 90.044 43.5533 89.3067 42.564 88.784C41.5747 88.2613 40.436 88 39.148 88C37.86 88 36.726 88.2613 35.746 88.784C34.766 89.3067 34.0053 90.044 33.464 90.996C32.9227 91.948 32.652 93.0493 32.652 94.3V101.748C32.652 103.017 32.9227 104.128 33.464 105.08C34.0053 106.032 34.766 106.769 35.746 107.292C36.726 107.815 37.86 108.076 39.148 108.076ZM37.3 103.918C37.7667 104.431 38.3827 104.688 39.148 104.688C39.932 104.688 40.5573 104.431 41.024 103.918C41.4907 103.405 41.724 102.737 41.724 101.916V94.188C41.724 93.348 41.4907 92.6713 41.024 92.158C40.5573 91.6447 39.932 91.388 39.148 91.388C38.3827 91.388 37.7667 91.6447 37.3 92.158C36.8333 92.6713 36.6 93.348 36.6 94.188V101.916C36.6 102.737 36.8333 103.405 37.3 103.918ZM57.74 107.306C58.7107 106.811 59.462 106.107 59.994 105.192C60.526 104.277 60.792 103.223 60.792 102.028V101.944C60.792 101.851 60.7593 101.771 60.694 101.706C60.6287 101.641 60.5493 101.608 60.456 101.608L57.18 101.468C56.956 101.468 56.844 101.571 56.844 101.776V102.14C56.844 102.905 56.62 103.517 56.172 103.974C55.724 104.431 55.1267 104.66 54.38 104.66C53.6333 104.66 53.036 104.431 52.588 103.974C52.14 103.517 51.916 102.905 51.916 102.14V93.936C51.916 93.1707 52.14 92.5547 52.588 92.088C53.036 91.6213 53.6333 91.388 54.38 91.388C55.1267 91.388 55.724 91.6213 56.172 92.088C56.62 92.5547 56.844 93.1707 56.844 93.936V94.3C56.844 94.5053 56.956 94.608 57.18 94.608L60.456 94.468C60.5493 94.468 60.6287 94.4307 60.694 94.356C60.7593 94.2813 60.792 94.1973 60.792 94.104V93.964C60.792 92.7693 60.526 91.724 59.994 90.828C59.462 89.932 58.7107 89.2367 57.74 88.742C56.7693 88.2473 55.6493 88 54.38 88C53.1107 88 51.9907 88.252 51.02 88.756C50.0493 89.26 49.298 89.974 48.766 90.898C48.234 91.822 47.968 92.8907 47.968 94.104V101.888C47.968 103.12 48.234 104.203 48.766 105.136C49.298 106.069 50.0493 106.788 51.02 107.292C51.9907 107.796 53.1107 108.048 54.38 108.048C55.6493 108.048 56.7693 107.801 57.74 107.306ZM67.162 107.726C67.0967 107.791 67.0173 107.824 66.924 107.824H63.648C63.5547 107.824 63.4753 107.791 63.41 107.726C63.3447 107.661 63.312 107.581 63.312 107.488V88.56C63.312 88.4667 63.3447 88.3873 63.41 88.322C63.4753 88.2567 63.5547 88.224 63.648 88.224H66.924C67.0173 88.224 67.0967 88.2567 67.162 88.322C67.2273 88.3873 67.26 88.4667 67.26 88.56V96.008C67.26 96.064 67.2833 96.1013 67.33 96.12C67.3767 96.1387 67.4093 96.12 67.428 96.064L72.44 88.448C72.5333 88.2987 72.664 88.224 72.832 88.224H76.444C76.5747 88.224 76.6633 88.2613 76.71 88.336C76.7567 88.4107 76.7427 88.504 76.668 88.616L71.488 96.652C71.4693 96.708 71.4693 96.7733 71.488 96.848L76.976 107.432C77.0133 107.507 77.032 107.563 77.032 107.6C77.032 107.749 76.9293 107.824 76.724 107.824H73.14C72.972 107.824 72.8413 107.74 72.748 107.572L68.772 99.9C68.7533 99.844 68.7253 99.816 68.688 99.816C68.6507 99.816 68.6133 99.844 68.576 99.9L67.316 101.72C67.2787 101.795 67.26 101.851 67.26 101.888V107.488C67.26 107.581 67.2273 107.661 67.162 107.726Z" fill="white"/>
</g>
<defs>
<filter id="filter0_d_0_1039" x="0" y="0" width="114.836" height="114.076" filterUnits="userSpaceOnUse" color-interpolation-filters="sRGB">
<feFlood flood-opacity="0" result="BackgroundImageFix"/>
<feColorMatrix in="SourceAlpha" type="matrix" values="0 0 0 0 0 0 0 0 0 0 0 0 0 0 0 0 0 0 127 0" result="hardAlpha"/>
<feOffset dy="3"/>
<feGaussianBlur stdDeviation="1.5"/>
<feColorMatrix type="matrix" values="0 0 0 0 0 0 0 0 0 0 0 0 0 0 0 0 0 0 0.196706 0"/>
<feBlend mode="normal" in2="BackgroundImageFix" result="effect1_dropShadow_0_1039"/>
<feBlend mode="normal" in="SourceGraphic" in2="effect1_dropShadow_0_1039" result="shape"/>
</filter>
</defs>
</svg>
