<svg width="156" height="93" viewBox="0 0 156 93" fill="none" xmlns="http://www.w3.org/2000/svg">
<path id="tipa-logo" fill-rule="evenodd" clip-rule="evenodd" d="M36.2 27.56C34.7867 28.3067 33.16 28.68 31.32 28.68C29.48 28.68 27.86 28.3067 26.46 27.56C25.06 26.8133 23.9733 25.76 23.2 24.4C22.4267 23.04 22.04 21.4533 22.04 19.64V9C22.04 7.21333 22.4267 5.64 23.2 4.28C23.9733 2.92 25.06 1.86667 26.46 1.12C27.86 0.373333 29.48 0 31.32 0C33.16 0 34.7867 0.373333 36.2 1.12C37.6133 1.86667 38.7067 2.92 39.48 4.28C40.2533 5.64 40.64 7.21333 40.64 9V19.64C40.64 21.4533 40.2533 23.04 39.48 24.4C38.7067 25.76 37.6133 26.8133 36.2 27.56ZM5.96 28.32C6.09333 28.32 6.20667 28.2733 6.3 28.18C6.39333 28.0867 6.44 27.9733 6.44 27.84V16.92C6.44 16.7867 6.50667 16.72 6.64 16.72H9.16C9.24 16.72 9.30667 16.7733 9.36 16.88L13.4 27.92C13.48 28.1867 13.6667 28.32 13.96 28.32H18.84C19.1333 28.32 19.28 28.2 19.28 27.96C19.28 27.88 19.2667 27.8133 19.24 27.76L14.68 16.28C14.6267 16.1467 14.6667 16.0533 14.8 16C16.16 15.3867 17.2133 14.4533 17.96 13.2C18.7067 11.9467 19.08 10.4667 19.08 8.76C19.08 7.10667 18.7467 5.64 18.08 4.36C17.4133 3.08 16.4667 2.08667 15.24 1.38C14.0133 0.673333 12.6133 0.32 11.04 0.32H1.28C1.14667 0.32 1.03333 0.366667 0.94 0.46C0.846667 0.553333 0.8 0.666667 0.8 0.8V27.84C0.8 27.9733 0.846667 28.0867 0.94 28.18C1.03333 28.2733 1.14667 28.32 1.28 28.32H5.96ZM10.12 12.4H6.64C6.50667 12.4 6.44 12.3333 6.44 12.2V5.36C6.44 5.22667 6.50667 5.16 6.64 5.16H10.12C11.1067 5.16 11.9067 5.48667 12.52 6.14C13.1333 6.79333 13.44 7.68 13.44 8.8C13.44 9.89333 13.1333 10.7667 12.52 11.42C11.9067 12.0733 11.1067 12.4 10.12 12.4ZM31.32 23.84C30.2267 23.84 29.3467 23.4733 28.68 22.74C28.0133 22.0067 27.68 21.0533 27.68 19.88V8.84C27.68 7.64 28.0133 6.67333 28.68 5.94C29.3467 5.20667 30.2267 4.84 31.32 4.84C32.44 4.84 33.3333 5.20667 34 5.94C34.6667 6.67333 35 7.64 35 8.84V19.88C35 21.0533 34.6667 22.0067 34 22.74C33.3333 23.4733 32.44 23.84 31.32 23.84ZM61.1 24.56C60.34 25.8667 59.2667 26.8733 57.88 27.58C56.4933 28.2867 54.8933 28.64 53.08 28.64C51.2667 28.64 49.6667 28.28 48.28 27.56C46.8933 26.84 45.82 25.8133 45.06 24.48C44.3 23.1467 43.92 21.6 43.92 19.84V8.72C43.92 6.98667 44.3 5.46 45.06 4.14C45.82 2.82 46.8933 1.8 48.28 1.08C49.6667 0.36 51.2667 0 53.08 0C54.8933 0 56.4933 0.353333 57.88 1.06C59.2667 1.76667 60.34 2.76 61.1 4.04C61.86 5.32 62.24 6.81333 62.24 8.52V8.72C62.24 8.85333 62.1933 8.97333 62.1 9.08C62.0067 9.18667 61.8933 9.24 61.76 9.24L57.08 9.44C56.76 9.44 56.6 9.29333 56.6 9V8.48C56.6 7.38667 56.28 6.50667 55.64 5.84C55 5.17333 54.1467 4.84 53.08 4.84C52.0133 4.84 51.16 5.17333 50.52 5.84C49.88 6.50667 49.56 7.38667 49.56 8.48V20.2C49.56 21.2933 49.88 22.1667 50.52 22.82C51.16 23.4733 52.0133 23.8 53.08 23.8C54.1467 23.8 55 23.4733 55.64 22.82C56.28 22.1667 56.6 21.2933 56.6 20.2V19.68C56.6 19.3867 56.76 19.24 57.08 19.24L61.76 19.44C61.8933 19.44 62.0067 19.4867 62.1 19.58C62.1933 19.6733 62.24 19.7867 62.24 19.92V20.04C62.24 21.7467 61.86 23.2533 61.1 24.56ZM71 28.32C71.1333 28.32 71.2467 28.2733 71.34 28.18C71.4333 28.0867 71.48 27.9733 71.48 27.84V19.84C71.48 19.7867 71.5067 19.7067 71.56 19.6L73.36 17C73.4133 16.92 73.4667 16.88 73.52 16.88C73.5733 16.88 73.6133 16.92 73.64 17L79.32 27.96C79.4533 28.2 79.64 28.32 79.88 28.32H85C85.2933 28.32 85.44 28.2133 85.44 28C85.44 27.9467 85.4133 27.8667 85.36 27.76L77.52 12.64C77.4933 12.5333 77.4933 12.44 77.52 12.36L84.92 0.88C85.0267 0.72 85.0467 0.586667 84.98 0.48C84.9133 0.373333 84.7867 0.32 84.6 0.32H79.44C79.2 0.32 79.0133 0.426667 78.88 0.64L71.72 11.52C71.6933 11.6 71.6467 11.6267 71.58 11.6C71.5133 11.5733 71.48 11.52 71.48 11.44V0.8C71.48 0.666667 71.4333 0.553333 71.34 0.46C71.2467 0.366667 71.1333 0.32 71 0.32H66.32C66.1867 0.32 66.0733 0.366667 65.98 0.46C65.8867 0.553333 65.84 0.666667 65.84 0.8V27.84C65.84 27.9733 65.8867 28.0867 65.98 28.18C66.0733 28.2733 66.1867 28.32 66.32 28.32H71ZM6.18 60.18C6.08667 60.2733 5.97333 60.32 5.84 60.32H1.16C1.02667 60.32 0.913333 60.2733 0.82 60.18C0.726667 60.0867 0.68 59.9733 0.68 59.84V32.76C0.68 32.6267 0.726667 32.5133 0.82 32.42C0.913333 32.3267 1.02667 32.28 1.16 32.28H10.84C12.44 32.28 13.86 32.64 15.1 33.36C16.34 34.08 17.3 35.0933 17.98 36.4C18.66 37.7067 19 39.2 19 40.88C19 42.5333 18.66 43.9933 17.98 45.26C17.3 46.5267 16.34 47.5067 15.1 48.2C13.86 48.8933 12.44 49.24 10.84 49.24H6.52C6.38667 49.24 6.32 49.3067 6.32 49.44V59.84C6.32 59.9733 6.27333 60.0867 6.18 60.18ZM9.92 44.76H6.52C6.38667 44.76 6.32 44.6933 6.32 44.56V37.36C6.32 37.2267 6.38667 37.16 6.52 37.16H9.92C10.96 37.16 11.7933 37.5067 12.42 38.2C13.0467 38.8933 13.36 39.8267 13.36 41C13.36 42.1467 13.0467 43.06 12.42 43.74C11.7933 44.42 10.96 44.76 9.92 44.76ZM26.56 59.92C26.48 60.1867 26.3067 60.32 26.04 60.32H21.2C20.8533 60.32 20.72 60.1467 20.8 59.8L28 32.72C28.08 32.4533 28.2667 32.32 28.56 32.32H34.36C34.6533 32.32 34.84 32.4533 34.92 32.72L42.12 59.8L42.16 59.96C42.16 60.2 42.0133 60.32 41.72 60.32H36.84C36.5467 60.32 36.36 60.1867 36.28 59.92L35.36 56C35.3333 55.8933 35.2667 55.84 35.16 55.84H27.68C27.5733 55.84 27.5067 55.8933 27.48 56L26.56 59.92ZM34.04 51.48H28.76C28.7067 51.48 28.6533 51.46 28.6 51.42C28.5467 51.38 28.5333 51.32 28.56 51.24L31.24 39.64C31.2667 39.5333 31.3067 39.48 31.36 39.48C31.4133 39.48 31.4533 39.5333 31.48 39.64L34.24 51.24C34.2667 51.32 34.2533 51.38 34.2 51.42C34.1467 51.46 34.0933 51.48 34.04 51.48ZM50.5 60.18C50.4067 60.2733 50.2933 60.32 50.16 60.32H45.48C45.3467 60.32 45.2333 60.2733 45.14 60.18C45.0467 60.0867 45 59.9733 45 59.84V32.76C45 32.6267 45.0467 32.5133 45.14 32.42C45.2333 32.3267 45.3467 32.28 45.48 32.28H55.16C56.76 32.28 58.18 32.64 59.42 33.36C60.66 34.08 61.62 35.0933 62.3 36.4C62.98 37.7067 63.32 39.2 63.32 40.88C63.32 42.5333 62.98 43.9933 62.3 45.26C61.62 46.5267 60.66 47.5067 59.42 48.2C58.18 48.8933 56.76 49.24 55.16 49.24H50.84C50.7067 49.24 50.64 49.3067 50.64 49.44V59.84C50.64 59.9733 50.5933 60.0867 50.5 60.18ZM54.24 44.76H50.84C50.7067 44.76 50.64 44.6933 50.64 44.56V37.36C50.64 37.2267 50.7067 37.16 50.84 37.16H54.24C55.28 37.16 56.1133 37.5067 56.74 38.2C57.3667 38.8933 57.68 39.8267 57.68 41C57.68 42.1467 57.3667 43.06 56.74 43.74C56.1133 44.42 55.28 44.76 54.24 44.76ZM83.26 60.18C83.1667 60.2733 83.0533 60.32 82.92 60.32H66.84C66.7067 60.32 66.5933 60.2733 66.5 60.18C66.4067 60.0867 66.36 59.9733 66.36 59.84V32.8C66.36 32.6667 66.4067 32.5533 66.5 32.46C66.5933 32.3667 66.7067 32.32 66.84 32.32H82.92C83.0533 32.32 83.1667 32.3667 83.26 32.46C83.3533 32.5533 83.4 32.6667 83.4 32.8V36.68C83.4 36.8133 83.3533 36.9267 83.26 37.02C83.1667 37.1133 83.0533 37.16 82.92 37.16H72.2C72.0667 37.16 72 37.2267 72 37.36V43.6C72 43.7333 72.0667 43.8 72.2 43.8H78.88C79.0133 43.8 79.1267 43.8467 79.22 43.94C79.3133 44.0333 79.36 44.1467 79.36 44.28V48.16C79.36 48.2933 79.3133 48.4067 79.22 48.5C79.1267 48.5933 79.0133 48.64 78.88 48.64H72.2C72.0667 48.64 72 48.7067 72 48.84V55.28C72 55.4133 72.0667 55.48 72.2 55.48H82.92C83.0533 55.48 83.1667 55.5267 83.26 55.62C83.3533 55.7133 83.4 55.8267 83.4 55.96V59.84C83.4 59.9733 83.3533 60.0867 83.26 60.18ZM91.96 60.32C92.0933 60.32 92.2067 60.2733 92.3 60.18C92.3933 60.0867 92.44 59.9733 92.44 59.84V48.92C92.44 48.7867 92.5067 48.72 92.64 48.72H95.16C95.24 48.72 95.3067 48.7733 95.36 48.88L99.4 59.92C99.48 60.1867 99.6667 60.32 99.96 60.32H104.84C105.133 60.32 105.28 60.2 105.28 59.96C105.28 59.88 105.267 59.8133 105.24 59.76L100.68 48.28C100.627 48.1467 100.667 48.0533 100.8 48C102.16 47.3867 103.213 46.4533 103.96 45.2C104.707 43.9467 105.08 42.4667 105.08 40.76C105.08 39.1067 104.747 37.64 104.08 36.36C103.413 35.08 102.467 34.0867 101.24 33.38C100.013 32.6733 98.6133 32.32 97.04 32.32H87.28C87.1467 32.32 87.0333 32.3667 86.94 32.46C86.8467 32.5533 86.8 32.6667 86.8 32.8V59.84C86.8 59.9733 86.8467 60.0867 86.94 60.18C87.0333 60.2733 87.1467 60.32 87.28 60.32H91.96ZM92.64 44.4H96.12C97.1067 44.4 97.9067 44.0733 98.52 43.42C99.1333 42.7667 99.44 41.8933 99.44 40.8C99.44 39.68 99.1333 38.7933 98.52 38.14C97.9067 37.4867 97.1067 37.16 96.12 37.16H92.64C92.5067 37.16 92.44 37.2267 92.44 37.36V44.2C92.44 44.3333 92.5067 44.4 92.64 44.4ZM9.2 92.64C11.92 92.64 14.1 91.9267 15.74 90.5C17.38 89.0733 18.2 87.1467 18.2 84.72C18.2 83.36 17.9067 82.2 17.32 81.24C16.7333 80.28 16.0067 79.4867 15.14 78.86C14.2733 78.2333 13.0667 77.4933 11.52 76.64L10.68 76.16C9.32 75.4933 8.30667 74.9533 7.64 74.54C6.97333 74.1267 6.48 73.6933 6.16 73.24C5.84 72.7867 5.68 72.2533 5.68 71.64C5.68 70.76 5.95333 70.0733 6.5 69.58C7.04667 69.0867 7.8 68.84 8.76 68.84C9.90667 68.84 10.8133 69.16 11.48 69.8C12.1467 70.44 12.48 71.24 12.48 72.2V72.92C12.48 73.0533 12.5267 73.1667 12.62 73.26C12.7133 73.3533 12.8267 73.4 12.96 73.4H17.56C17.6933 73.4 17.8067 73.3533 17.9 73.26C17.9933 73.1667 18.04 73.0533 18.04 72.92V72.12C18.04 70.52 17.6533 69.1067 16.88 67.88C16.1067 66.6533 15.0267 65.7 13.64 65.02C12.2533 64.34 10.6667 64 8.88 64C7.17333 64 5.65333 64.3133 4.32 64.94C2.98667 65.5667 1.95333 66.46 1.22 67.62C0.486667 68.78 0.12 70.1333 0.12 71.68C0.12 73.2267 0.48 74.5467 1.2 75.64C1.92 76.7333 2.78667 77.6267 3.8 78.32C4.81333 79.0133 6.12 79.76 7.72 80.56C9.02667 81.2267 9.99333 81.7533 10.62 82.14C11.2467 82.5267 11.7333 82.94 12.08 83.38C12.4267 83.82 12.6 84.3467 12.6 84.96C12.6 85.7867 12.3267 86.4667 11.78 87C11.2333 87.5333 10.44 87.8 9.4 87.8C8.22667 87.8 7.29333 87.4867 6.6 86.86C5.90667 86.2333 5.56 85.4533 5.56 84.52V83.76C5.56 83.6267 5.51333 83.5133 5.42 83.42C5.32667 83.3267 5.21333 83.28 5.08 83.28H0.48C0.346667 83.28 0.233333 83.3267 0.14 83.42C0.0466667 83.5133 0 83.6267 0 83.76V84.8C0 86.3467 0.38 87.7133 1.14 88.9C1.9 90.0867 2.97333 91.0067 4.36 91.66C5.74667 92.3133 7.36 92.64 9.2 92.64ZM38.3 88.56C37.54 89.8667 36.4667 90.8733 35.08 91.58C33.6933 92.2867 32.0933 92.64 30.28 92.64C28.4667 92.64 26.8667 92.28 25.48 91.56C24.0933 90.84 23.02 89.8133 22.26 88.48C21.5 87.1467 21.12 85.6 21.12 83.84V72.72C21.12 70.9867 21.5 69.46 22.26 68.14C23.02 66.82 24.0933 65.8 25.48 65.08C26.8667 64.36 28.4667 64 30.28 64C32.0933 64 33.6933 64.3533 35.08 65.06C36.4667 65.7667 37.54 66.76 38.3 68.04C39.06 69.32 39.44 70.8133 39.44 72.52V72.72C39.44 72.8533 39.3933 72.9733 39.3 73.08C39.2067 73.1867 39.0933 73.24 38.96 73.24L34.28 73.44C33.96 73.44 33.8 73.2933 33.8 73V72.48C33.8 71.3867 33.48 70.5067 32.84 69.84C32.2 69.1733 31.3467 68.84 30.28 68.84C29.2133 68.84 28.36 69.1733 27.72 69.84C27.08 70.5067 26.76 71.3867 26.76 72.48V84.2C26.76 85.2933 27.08 86.1667 27.72 86.82C28.36 87.4733 29.2133 87.8 30.28 87.8C31.3467 87.8 32.2 87.4733 32.84 86.82C33.48 86.1667 33.8 85.2933 33.8 84.2V83.68C33.8 83.3867 33.96 83.24 34.28 83.24L38.96 83.44C39.0933 83.44 39.2067 83.4867 39.3 83.58C39.3933 83.6733 39.44 83.7867 39.44 83.92V84.04C39.44 85.7467 39.06 87.2533 38.3 88.56ZM48.2 92.32C48.3333 92.32 48.4467 92.2733 48.54 92.18C48.6333 92.0867 48.68 91.9733 48.68 91.84V64.8C48.68 64.6667 48.6333 64.5533 48.54 64.46C48.4467 64.3667 48.3333 64.32 48.2 64.32H43.52C43.3867 64.32 43.2733 64.3667 43.18 64.46C43.0867 64.5533 43.04 64.6667 43.04 64.8V91.84C43.04 91.9733 43.0867 92.0867 43.18 92.18C43.2733 92.2733 43.3867 92.32 43.52 92.32H48.2ZM67.82 90.5C66.18 91.9267 64 92.64 61.28 92.64C59.44 92.64 57.8267 92.3133 56.44 91.66C55.0533 91.0067 53.98 90.0867 53.22 88.9C52.46 87.7133 52.08 86.3467 52.08 84.8V83.76C52.08 83.6267 52.1267 83.5133 52.22 83.42C52.3133 83.3267 52.4267 83.28 52.56 83.28H57.16C57.2933 83.28 57.4067 83.3267 57.5 83.42C57.5933 83.5133 57.64 83.6267 57.64 83.76V84.52C57.64 85.4533 57.9867 86.2333 58.68 86.86C59.3733 87.4867 60.3067 87.8 61.48 87.8C62.52 87.8 63.3133 87.5333 63.86 87C64.4067 86.4667 64.68 85.7867 64.68 84.96C64.68 84.3467 64.5067 83.82 64.16 83.38C63.8133 82.94 63.3267 82.5267 62.7 82.14C62.0733 81.7533 61.1067 81.2267 59.8 80.56C58.2 79.76 56.8933 79.0133 55.88 78.32C54.8667 77.6267 54 76.7333 53.28 75.64C52.56 74.5467 52.2 73.2267 52.2 71.68C52.2 70.1333 52.5667 68.78 53.3 67.62C54.0333 66.46 55.0667 65.5667 56.4 64.94C57.7333 64.3133 59.2533 64 60.96 64C62.7467 64 64.3333 64.34 65.72 65.02C67.1067 65.7 68.1867 66.6533 68.96 67.88C69.7333 69.1067 70.12 70.52 70.12 72.12V72.92C70.12 73.0533 70.0733 73.1667 69.98 73.26C69.8867 73.3533 69.7733 73.4 69.64 73.4H65.04C64.9067 73.4 64.7933 73.3533 64.7 73.26C64.6067 73.1667 64.56 73.0533 64.56 72.92V72.2C64.56 71.24 64.2267 70.44 63.56 69.8C62.8933 69.16 61.9867 68.84 60.84 68.84C59.88 68.84 59.1267 69.0867 58.58 69.58C58.0333 70.0733 57.76 70.76 57.76 71.64C57.76 72.2533 57.92 72.7867 58.24 73.24C58.56 73.6933 59.0533 74.1267 59.72 74.54C60.3867 74.9533 61.4 75.4933 62.76 76.16L63.6 76.64C65.1467 77.4933 66.3533 78.2333 67.22 78.86C68.0867 79.4867 68.8133 80.28 69.4 81.24C69.9867 82.2 70.28 83.36 70.28 84.72C70.28 87.1467 69.46 89.0733 67.82 90.5ZM82.08 92.64C84.8 92.64 86.98 91.9267 88.62 90.5C90.26 89.0733 91.08 87.1467 91.08 84.72C91.08 83.36 90.7867 82.2 90.2 81.24C89.6133 80.28 88.8867 79.4867 88.02 78.86C87.1533 78.2333 85.9467 77.4933 84.4 76.64L83.56 76.16C82.2 75.4933 81.1867 74.9533 80.52 74.54C79.8533 74.1267 79.36 73.6933 79.04 73.24C78.72 72.7867 78.56 72.2533 78.56 71.64C78.56 70.76 78.8333 70.0733 79.38 69.58C79.9267 69.0867 80.68 68.84 81.64 68.84C82.7867 68.84 83.6933 69.16 84.36 69.8C85.0267 70.44 85.36 71.24 85.36 72.2V72.92C85.36 73.0533 85.4067 73.1667 85.5 73.26C85.5933 73.3533 85.7067 73.4 85.84 73.4H90.44C90.5733 73.4 90.6867 73.3533 90.78 73.26C90.8733 73.1667 90.92 73.0533 90.92 72.92V72.12C90.92 70.52 90.5333 69.1067 89.76 67.88C88.9867 66.6533 87.9067 65.7 86.52 65.02C85.1333 64.34 83.5467 64 81.76 64C80.0533 64 78.5333 64.3133 77.2 64.94C75.8667 65.5667 74.8333 66.46 74.1 67.62C73.3667 68.78 73 70.1333 73 71.68C73 73.2267 73.36 74.5467 74.08 75.64C74.8 76.7333 75.6667 77.6267 76.68 78.32C77.6933 79.0133 79 79.76 80.6 80.56C81.9067 81.2267 82.8733 81.7533 83.5 82.14C84.1267 82.5267 84.6133 82.94 84.96 83.38C85.3067 83.82 85.48 84.3467 85.48 84.96C85.48 85.7867 85.2067 86.4667 84.66 87C84.1133 87.5333 83.32 87.8 82.28 87.8C81.1067 87.8 80.1733 87.4867 79.48 86.86C78.7867 86.2333 78.44 85.4533 78.44 84.52V83.76C78.44 83.6267 78.3933 83.5133 78.3 83.42C78.2067 83.3267 78.0933 83.28 77.96 83.28H73.36C73.2267 83.28 73.1133 83.3267 73.02 83.42C72.9267 83.5133 72.88 83.6267 72.88 83.76V84.8C72.88 86.3467 73.26 87.7133 74.02 88.9C74.78 90.0867 75.8533 91.0067 77.24 91.66C78.6267 92.3133 80.24 92.64 82.08 92.64ZM108.16 91.56C106.747 92.3067 105.12 92.68 103.28 92.68C101.44 92.68 99.82 92.3067 98.42 91.56C97.02 90.8133 95.9333 89.76 95.16 88.4C94.3867 87.04 94 85.4533 94 83.64V73C94 71.2133 94.3867 69.64 95.16 68.28C95.9333 66.92 97.02 65.8667 98.42 65.12C99.82 64.3733 101.44 64 103.28 64C105.12 64 106.747 64.3733 108.16 65.12C109.573 65.8667 110.667 66.92 111.44 68.28C112.213 69.64 112.6 71.2133 112.6 73V83.64C112.6 85.4533 112.213 87.04 111.44 88.4C110.667 89.76 109.573 90.8133 108.16 91.56ZM103.28 87.84C102.187 87.84 101.307 87.4733 100.64 86.74C99.9733 86.0067 99.64 85.0533 99.64 83.88V72.84C99.64 71.64 99.9733 70.6733 100.64 69.94C101.307 69.2067 102.187 68.84 103.28 68.84C104.4 68.84 105.293 69.2067 105.96 69.94C106.627 70.6733 106.96 71.64 106.96 72.84V83.88C106.96 85.0533 106.627 86.0067 105.96 86.74C105.293 87.4733 104.4 87.84 103.28 87.84ZM121.86 92.18C121.767 92.2733 121.653 92.32 121.52 92.32H116.84C116.707 92.32 116.593 92.2733 116.5 92.18C116.407 92.0867 116.36 91.9733 116.36 91.84V64.8C116.36 64.6667 116.407 64.5533 116.5 64.46C116.593 64.3667 116.707 64.32 116.84 64.32H126.6C128.173 64.32 129.573 64.6733 130.8 65.38C132.027 66.0867 132.973 67.08 133.64 68.36C134.307 69.64 134.64 71.1067 134.64 72.76C134.64 74.4667 134.267 75.9467 133.52 77.2C132.773 78.4533 131.72 79.3867 130.36 80C130.227 80.0533 130.187 80.1467 130.24 80.28L134.8 91.76C134.827 91.8133 134.84 91.88 134.84 91.96C134.84 92.2 134.693 92.32 134.4 92.32H129.52C129.227 92.32 129.04 92.1867 128.96 91.92L124.92 80.88C124.867 80.7733 124.8 80.72 124.72 80.72H122.2C122.067 80.72 122 80.7867 122 80.92V91.84C122 91.9733 121.953 92.0867 121.86 92.18ZM125.68 76.4H122.2C122.067 76.4 122 76.3333 122 76.2V69.36C122 69.2267 122.067 69.16 122.2 69.16H125.68C126.667 69.16 127.467 69.4867 128.08 70.14C128.693 70.7933 129 71.68 129 72.8C129 73.8933 128.693 74.7667 128.08 75.42C127.467 76.0733 126.667 76.4 125.68 76.4ZM153.02 90.5C151.38 91.9267 149.2 92.64 146.48 92.64C144.64 92.64 143.027 92.3133 141.64 91.66C140.253 91.0067 139.18 90.0867 138.42 88.9C137.66 87.7133 137.28 86.3467 137.28 84.8V83.76C137.28 83.6267 137.327 83.5133 137.42 83.42C137.513 83.3267 137.627 83.28 137.76 83.28H142.36C142.493 83.28 142.607 83.3267 142.7 83.42C142.793 83.5133 142.84 83.6267 142.84 83.76V84.52C142.84 85.4533 143.187 86.2333 143.88 86.86C144.573 87.4867 145.507 87.8 146.68 87.8C147.72 87.8 148.513 87.5333 149.06 87C149.607 86.4667 149.88 85.7867 149.88 84.96C149.88 84.3467 149.707 83.82 149.36 83.38C149.013 82.94 148.527 82.5267 147.9 82.14C147.273 81.7533 146.307 81.2267 145 80.56C143.4 79.76 142.093 79.0133 141.08 78.32C140.067 77.6267 139.2 76.7333 138.48 75.64C137.76 74.5467 137.4 73.2267 137.4 71.68C137.4 70.1333 137.767 68.78 138.5 67.62C139.233 66.46 140.267 65.5667 141.6 64.94C142.933 64.3133 144.453 64 146.16 64C147.947 64 149.533 64.34 150.92 65.02C152.307 65.7 153.387 66.6533 154.16 67.88C154.933 69.1067 155.32 70.52 155.32 72.12V72.92C155.32 73.0533 155.273 73.1667 155.18 73.26C155.087 73.3533 154.973 73.4 154.84 73.4H150.24C150.107 73.4 149.993 73.3533 149.9 73.26C149.807 73.1667 149.76 73.0533 149.76 72.92V72.2C149.76 71.24 149.427 70.44 148.76 69.8C148.093 69.16 147.187 68.84 146.04 68.84C145.08 68.84 144.327 69.0867 143.78 69.58C143.233 70.0733 142.96 70.76 142.96 71.64C142.96 72.2533 143.12 72.7867 143.44 73.24C143.76 73.6933 144.253 74.1267 144.92 74.54C145.587 74.9533 146.6 75.4933 147.96 76.16L148.8 76.64C150.347 77.4933 151.553 78.2333 152.42 78.86C153.287 79.4867 154.013 80.28 154.6 81.24C155.187 82.2 155.48 83.36 155.48 84.72C155.48 87.1467 154.66 89.0733 153.02 90.5Z" fill="white"/>
</svg>
